<mxfile host="app.diagrams.net" modified="2024-04-10T13:02:29.474Z" agent="Mozilla/5.0 (Windows NT 10.0; Win64; x64) AppleWebKit/537.36 (KHTML, like Gecko) Chrome/123.0.0.0 Safari/537.36" etag="AtnQhQGEeZxWbtHhk7tE" version="24.2.3" type="device">
  <diagram name="Page-1" id="9f46799a-70d6-7492-0946-bef42562c5a5">
    <mxGraphModel dx="1843" dy="796" grid="1" gridSize="10" guides="1" tooltips="1" connect="1" arrows="1" fold="1" page="1" pageScale="1" pageWidth="1100" pageHeight="850" background="none" math="0" shadow="0">
      <root>
        <mxCell id="0" />
        <mxCell id="1" parent="0" />
        <mxCell id="j7cB0sYLKfi3XkPB0tpm-8" value="" style="rounded=1;whiteSpace=wrap;html=1;" parent="1" vertex="1">
          <mxGeometry x="240" y="230" width="120" height="170" as="geometry" />
        </mxCell>
        <mxCell id="j7cB0sYLKfi3XkPB0tpm-9" value="" style="rounded=1;whiteSpace=wrap;html=1;" parent="1" vertex="1">
          <mxGeometry x="460" y="200" width="160" height="230" as="geometry" />
        </mxCell>
        <mxCell id="j7cB0sYLKfi3XkPB0tpm-10" value="" style="rounded=1;whiteSpace=wrap;html=1;" parent="1" vertex="1">
          <mxGeometry x="720" y="200" width="120" height="230" as="geometry" />
        </mxCell>
        <mxCell id="j7cB0sYLKfi3XkPB0tpm-11" value="" style="rounded=1;whiteSpace=wrap;html=1;" parent="1" vertex="1">
          <mxGeometry x="460" y="480" width="160" height="90" as="geometry" />
        </mxCell>
        <mxCell id="j7cB0sYLKfi3XkPB0tpm-13" value="" style="line;strokeWidth=2;html=1;" parent="1" vertex="1">
          <mxGeometry x="255" y="270" width="90" height="10" as="geometry" />
        </mxCell>
        <mxCell id="j7cB0sYLKfi3XkPB0tpm-14" value="" style="line;strokeWidth=2;html=1;" parent="1" vertex="1">
          <mxGeometry x="495" y="240" width="90" height="10" as="geometry" />
        </mxCell>
        <mxCell id="j7cB0sYLKfi3XkPB0tpm-15" value="" style="rounded=1;whiteSpace=wrap;html=1;" parent="1" vertex="1">
          <mxGeometry x="470" y="380" width="140" height="30" as="geometry" />
        </mxCell>
        <mxCell id="j7cB0sYLKfi3XkPB0tpm-16" value="" style="endArrow=classic;html=1;rounded=0;exitX=0;exitY=0.5;exitDx=0;exitDy=0;entryX=1;entryY=0.5;entryDx=0;entryDy=0;strokeWidth=2;" parent="1" source="j7cB0sYLKfi3XkPB0tpm-31" target="j7cB0sYLKfi3XkPB0tpm-15" edge="1">
          <mxGeometry width="50" height="50" relative="1" as="geometry">
            <mxPoint x="500" y="380" as="sourcePoint" />
            <mxPoint x="550" y="330" as="targetPoint" />
          </mxGeometry>
        </mxCell>
        <mxCell id="j7cB0sYLKfi3XkPB0tpm-17" value="" style="endArrow=classic;html=1;rounded=0;exitX=1;exitY=0.5;exitDx=0;exitDy=0;entryX=0;entryY=0.5;entryDx=0;entryDy=0;strokeWidth=2;" parent="1" source="j7cB0sYLKfi3XkPB0tpm-35" target="j7cB0sYLKfi3XkPB0tpm-30" edge="1">
          <mxGeometry width="50" height="50" relative="1" as="geometry">
            <mxPoint x="440" y="380" as="sourcePoint" />
            <mxPoint x="490" y="330" as="targetPoint" />
            <Array as="points">
              <mxPoint x="420" y="345" />
              <mxPoint x="420" y="285" />
            </Array>
          </mxGeometry>
        </mxCell>
        <mxCell id="j7cB0sYLKfi3XkPB0tpm-18" value="" style="endArrow=classic;html=1;rounded=0;exitX=1;exitY=0.5;exitDx=0;exitDy=0;entryX=0;entryY=0.5;entryDx=0;entryDy=0;strokeWidth=2;" parent="1" source="j7cB0sYLKfi3XkPB0tpm-29" target="j7cB0sYLKfi3XkPB0tpm-32" edge="1">
          <mxGeometry width="50" height="50" relative="1" as="geometry">
            <mxPoint x="600" y="260" as="sourcePoint" />
            <mxPoint x="719" y="260" as="targetPoint" />
            <Array as="points">
              <mxPoint x="670" y="345" />
              <mxPoint x="670" y="305" />
            </Array>
          </mxGeometry>
        </mxCell>
        <mxCell id="j7cB0sYLKfi3XkPB0tpm-19" value="" style="endArrow=classic;html=1;rounded=0;exitX=0.5;exitY=1;exitDx=0;exitDy=0;entryX=0.5;entryY=0;entryDx=0;entryDy=0;strokeWidth=2;" parent="1" source="j7cB0sYLKfi3XkPB0tpm-15" target="j7cB0sYLKfi3XkPB0tpm-11" edge="1">
          <mxGeometry width="50" height="50" relative="1" as="geometry">
            <mxPoint x="550" y="470" as="sourcePoint" />
            <mxPoint x="669" y="470" as="targetPoint" />
          </mxGeometry>
        </mxCell>
        <mxCell id="j7cB0sYLKfi3XkPB0tpm-20" value="" style="line;strokeWidth=2;html=1;" parent="1" vertex="1">
          <mxGeometry x="735" y="230" width="90" height="10" as="geometry" />
        </mxCell>
        <mxCell id="j7cB0sYLKfi3XkPB0tpm-24" value="&lt;b&gt;&amp;nbsp; &lt;font style=&quot;font-size: 15px;&quot;&gt;Engineering&lt;/font&gt;&lt;/b&gt;" style="text;html=1;align=center;verticalAlign=middle;whiteSpace=wrap;rounded=0;" parent="1" vertex="1">
          <mxGeometry x="510" y="210" width="60" height="30" as="geometry" />
        </mxCell>
        <mxCell id="j7cB0sYLKfi3XkPB0tpm-26" value="&lt;b&gt;&lt;font style=&quot;font-size: 15px;&quot;&gt;CEO&lt;/font&gt;&lt;/b&gt;" style="text;html=1;align=center;verticalAlign=middle;resizable=0;points=[];autosize=1;strokeColor=none;fillColor=none;" parent="1" vertex="1">
          <mxGeometry x="750" y="210" width="60" height="30" as="geometry" />
        </mxCell>
        <mxCell id="j7cB0sYLKfi3XkPB0tpm-27" value="&lt;b&gt;&lt;font style=&quot;font-size: 15px;&quot;&gt;Technician&lt;/font&gt;&lt;/b&gt;" style="text;html=1;align=center;verticalAlign=middle;whiteSpace=wrap;rounded=0;" parent="1" vertex="1">
          <mxGeometry x="270" y="250" width="60" height="30" as="geometry" />
        </mxCell>
        <mxCell id="j7cB0sYLKfi3XkPB0tpm-29" value="" style="rounded=1;whiteSpace=wrap;html=1;" parent="1" vertex="1">
          <mxGeometry x="470" y="330" width="140" height="30" as="geometry" />
        </mxCell>
        <mxCell id="j7cB0sYLKfi3XkPB0tpm-33" value="" style="edgeStyle=orthogonalEdgeStyle;rounded=0;orthogonalLoop=1;jettySize=auto;html=1;" parent="1" source="j7cB0sYLKfi3XkPB0tpm-30" target="j7cB0sYLKfi3XkPB0tpm-29" edge="1">
          <mxGeometry relative="1" as="geometry" />
        </mxCell>
        <mxCell id="j7cB0sYLKfi3XkPB0tpm-30" value="" style="rounded=1;whiteSpace=wrap;html=1;" parent="1" vertex="1">
          <mxGeometry x="470" y="265" width="140" height="40" as="geometry" />
        </mxCell>
        <mxCell id="j7cB0sYLKfi3XkPB0tpm-31" value="" style="rounded=1;whiteSpace=wrap;html=1;" parent="1" vertex="1">
          <mxGeometry x="730" y="370" width="100" height="50" as="geometry" />
        </mxCell>
        <mxCell id="j7cB0sYLKfi3XkPB0tpm-34" value="" style="edgeStyle=orthogonalEdgeStyle;rounded=0;orthogonalLoop=1;jettySize=auto;html=1;strokeWidth=2;" parent="1" source="j7cB0sYLKfi3XkPB0tpm-32" target="j7cB0sYLKfi3XkPB0tpm-31" edge="1">
          <mxGeometry relative="1" as="geometry" />
        </mxCell>
        <mxCell id="j7cB0sYLKfi3XkPB0tpm-32" value="" style="rounded=1;whiteSpace=wrap;html=1;" parent="1" vertex="1">
          <mxGeometry x="730" y="290" width="100" height="30" as="geometry" />
        </mxCell>
        <mxCell id="j7cB0sYLKfi3XkPB0tpm-35" value="" style="rounded=1;whiteSpace=wrap;html=1;" parent="1" vertex="1">
          <mxGeometry x="250" y="330" width="100" height="30" as="geometry" />
        </mxCell>
        <mxCell id="j7cB0sYLKfi3XkPB0tpm-36" value="Takes notes" style="text;html=1;align=center;verticalAlign=middle;whiteSpace=wrap;rounded=0;" parent="1" vertex="1">
          <mxGeometry x="255" y="330" width="90" height="30" as="geometry" />
        </mxCell>
        <mxCell id="j7cB0sYLKfi3XkPB0tpm-39" value="&amp;nbsp;PDF , Powerpoint" style="text;html=1;align=center;verticalAlign=middle;whiteSpace=wrap;rounded=0;" parent="1" vertex="1">
          <mxGeometry x="485" y="330" width="110" height="30" as="geometry" />
        </mxCell>
        <mxCell id="j7cB0sYLKfi3XkPB0tpm-41" value="excel for data&amp;nbsp; management&amp;nbsp; &amp;nbsp;" style="text;html=1;align=center;verticalAlign=middle;whiteSpace=wrap;rounded=0;" parent="1" vertex="1">
          <mxGeometry x="495" y="270" width="90" height="30" as="geometry" />
        </mxCell>
        <mxCell id="j7cB0sYLKfi3XkPB0tpm-42" value="consider" style="text;html=1;align=center;verticalAlign=middle;whiteSpace=wrap;rounded=0;" parent="1" vertex="1">
          <mxGeometry x="750" y="290" width="60" height="30" as="geometry" />
        </mxCell>
        <mxCell id="j7cB0sYLKfi3XkPB0tpm-44" value="Approve data processing" style="text;html=1;align=center;verticalAlign=middle;whiteSpace=wrap;rounded=0;" parent="1" vertex="1">
          <mxGeometry x="720" y="380" width="120" height="30" as="geometry" />
        </mxCell>
        <mxCell id="j7cB0sYLKfi3XkPB0tpm-45" value="Published website" style="text;html=1;align=center;verticalAlign=middle;whiteSpace=wrap;rounded=0;" parent="1" vertex="1">
          <mxGeometry x="490" y="380" width="100" height="30" as="geometry" />
        </mxCell>
        <mxCell id="j7cB0sYLKfi3XkPB0tpm-46" value="&lt;b&gt;&lt;font style=&quot;font-size: 15px;&quot;&gt;Website&lt;/font&gt;&lt;/b&gt;" style="text;html=1;align=center;verticalAlign=middle;whiteSpace=wrap;rounded=0;" parent="1" vertex="1">
          <mxGeometry x="510" y="480" width="60" height="30" as="geometry" />
        </mxCell>
        <mxCell id="j7cB0sYLKfi3XkPB0tpm-47" value="" style="rounded=1;whiteSpace=wrap;html=1;" parent="1" vertex="1">
          <mxGeometry x="470" y="530" width="140" height="30" as="geometry" />
        </mxCell>
        <mxCell id="j7cB0sYLKfi3XkPB0tpm-49" value="https://green.wu.ac.th/" style="text;html=1;align=center;verticalAlign=middle;whiteSpace=wrap;rounded=0;" parent="1" vertex="1">
          <mxGeometry x="510" y="530" width="60" height="30" as="geometry" />
        </mxCell>
        <mxCell id="j7cB0sYLKfi3XkPB0tpm-50" value="" style="line;strokeWidth=2;html=1;" parent="1" vertex="1">
          <mxGeometry x="495" y="500" width="90" height="10" as="geometry" />
        </mxCell>
      </root>
    </mxGraphModel>
  </diagram>
</mxfile>
